<?xml version="1.0" encoding="UTF-8"?>
<svg width="8px" height="12px" viewBox="0 0 8 12" version="1.1" xmlns="http://www.w3.org/2000/svg" xmlns:xlink="http://www.w3.org/1999/xlink">
    <title>编组 7</title>
    <g id="工具官网" stroke="none" stroke-width="1" fill="none" fill-rule="evenodd">
        <g id="稳定理财" transform="translate(-1182.000000, -272.000000)">
            <g id="编组-8" transform="translate(410.000000, 245.000000)">
                <g id="编组-7" transform="translate(772.000000, 27.000000)">
                    <path d="M1.33610631,1 L6.66389369,1 C6.99526454,1 7.26389369,1.26862915 7.26389369,1.6 C7.26389369,1.7469485 7.20996655,1.88878763 7.11233929,1.9986183 L4.44844559,4.99549871 C4.22829478,5.24316837 3.84905136,5.26547681 3.6013817,5.045326 C3.58381078,5.02970741 3.567173,5.01306962 3.55155441,4.99549871 L0.887660714,1.9986183 C0.667509904,1.75094864 0.689818341,1.37170522 0.937488002,1.15155441 C1.04731868,1.05392714 1.18915781,1 1.33610631,1 Z" id="路径-29备份-2" fill="#B9BECC" transform="translate(4.000000, 3.250000) scale(1, -1) translate(-4.000000, -3.250000) "></path>
                    <path d="M1.33610631,7 L6.66389369,7 C6.99526454,7 7.26389369,7.26862915 7.26389369,7.6 C7.26389369,7.7469485 7.20996655,7.88878763 7.11233929,7.9986183 L4.44844559,10.9954987 C4.22829478,11.2431684 3.84905136,11.2654768 3.6013817,11.045326 C3.58381078,11.0297074 3.567173,11.0130696 3.55155441,10.9954987 L0.887660714,7.9986183 C0.667509904,7.75094864 0.689818341,7.37170522 0.937488002,7.15155441 C1.04731868,7.05392714 1.18915781,7 1.33610631,7 Z" id="路径-29备份-4" fill="#0B65FF"></path>
                </g>
            </g>
        </g>
    </g>
</svg>