<?xml version="1.0" encoding="UTF-8"?>
<svg width="16px" height="20px" viewBox="0 0 16 20" version="1.1" xmlns="http://www.w3.org/2000/svg" xmlns:xlink="http://www.w3.org/1999/xlink">
    <title>编组 2</title>
    <g id="工具官网" stroke="none" stroke-width="1" fill="none" fill-rule="evenodd">
        <g id="钱包授权查询-查询结果" transform="translate(-474.000000, -324.000000)">
            <g id="编组-3" transform="translate(474.000000, 321.000000)">
                <g id="编组-2" transform="translate(0.000000, 3.000000)">
                    <path d="M0,3 C1.23103984,2.87169339 2.56437318,2.53836006 4,2 C5.43562682,1.46163994 6.76896016,0.794973275 8,0 C9.43562682,0.871693392 10.7689602,1.53836006 12,2 C13.2310398,2.46163994 14.5643732,2.79497327 16,3 L16,9.81966011 C16,13.6073807 13.8599762,17.0700119 10.472136,18.763932 L8,20 L8,20 L5.52786405,18.763932 C2.14002376,17.0700119 4.01657567e-15,13.6073807 0,9.81966011 L0,3 L0,3 Z" id="矩形" fill="#0B65FF"></path>
                    <polyline id="路径" stroke="#FFFFFF" stroke-width="2" stroke-linecap="round" stroke-linejoin="round" transform="translate(8.335534, 8.535534) rotate(-45.000000) translate(-8.335534, -8.535534) " points="11.3355339 10.5355339 5.33553391 10.5355339 5.33553391 6.53553391"></polyline>
                </g>
            </g>
        </g>
    </g>
</svg>